<svg width="2000" height="988" viewBox="0 0 2000 988" fill="none" xmlns="http://www.w3.org/2000/svg">
<path d="M47 839.5L113.5 754.5L213 650.5L289 591L326.5 570.5L371 555L420 545.5L473.5 537.5L522 534.5L566.5 533L615 534.5L657 537.5L694 542L744.5 553.5L833 578.5L966 614.5L1000 622L1046.5 631.5L1085 637L1130.5 640H1183L1224.5 637L1264 631.5L1299.5 622L1333.5 611L1363.5 598L1408 576.5L1446.5 554L1490.5 527.5L1532.5 500L1576.5 466.5L1605.5 435.5L1644 397L1673 356L1692 317L1728.5 262L1752 227.5L1773 202.5L1786 185L1797.5 174.5L1809.5 166.5L1828 156L1850 146L1886.5 133L1920 128" stroke="#E39161" stroke-width="93" stroke-linecap="round" stroke-linejoin="round"/>
<path d="M13 739L79.642 651.432L179.355 544.289L255.517 482.991L293.097 461.871L337.692 445.903L386.797 436.116L440.411 427.874L489.014 424.784L533.609 423.238L582.213 424.784L624.303 427.874L661.382 432.51L711.99 444.358L800.679 470.113L933.963 507.201L968.035 514.928L1014.63 524.715L1053.22 530.381L1098.81 533.472H1151.43L1193.01 530.381L1232.6 524.715L1268.17 514.928L1302.25 503.595L1332.31 490.202L1376.91 468.053L1415.49 444.873L1459.58 417.572L1501.67 389.241L1545.77 354.729L1574.83 322.792L1613.41 283.129L1642.47 240.89L1661.51 200.711L1698.09 144.049L1721.64 108.507L1742.69 82.7512L1755.71 64.7224L1767.24 53.9051L1779.26 45.6634L1797.8 34.8461L1819.85 24.5439L1856.43 11.1511L1890 6" stroke="#E39161" stroke-width="11" stroke-linecap="round" stroke-linejoin="round"/>
<path d="M64 973L132.204 885.432L234.254 778.289L312.202 716.991L350.663 695.871L396.303 679.903L446.559 670.116L501.43 661.874L551.173 658.784L596.813 657.238L646.556 658.784L689.633 661.874L727.581 666.51L779.375 678.358L870.143 704.113L1006.55 741.201L1041.42 748.928L1089.11 758.715L1128.6 764.381L1175.27 767.472H1229.11L1271.68 764.381L1312.19 758.715L1348.6 748.928L1383.47 737.595L1414.24 724.202L1459.88 702.053L1499.37 678.873L1544.49 651.572L1587.57 623.241L1632.7 588.729L1662.44 556.792L1701.93 517.129L1731.67 474.89L1751.16 434.711L1788.59 378.049L1812.69 342.507L1834.23 316.751L1847.57 298.722L1859.36 287.905L1871.67 279.663L1890.64 268.846L1913.21 258.544L1950.64 245.151L1985 240" stroke="#E39161" stroke-width="30" stroke-linecap="round" stroke-linejoin="round"/>
</svg>
